<?xml version="1.0" standalone="no"?>
<svg viewBox="0 0 200 200" xmlns="http://www.w3.org/2000/svg">
  <path fill="#FF0066" d="M45.2,-79.7C57.7,-71,66.3,-57.2,73.3,-43C80.3,-28.9,85.5,-14.4,85.2,-0.2C84.9,14.1,79,28.1,70.8,40.1C62.5,52.1,52,61.9,39.8,68.8C27.6,75.6,13.8,79.4,0.5,78.6C-12.9,77.8,-25.8,72.4,-39.3,66.4C-52.8,60.3,-67,53.6,-76.7,42.4C-86.3,31.2,-91.6,15.6,-90.5,0.7C-89.3,-14.3,-81.8,-28.6,-74,-43C-66.2,-57.5,-58.1,-72,-45.7,-80.8C-33.3,-89.5,-16.7,-92.5,-0.2,-92.2C16.3,-91.9,32.7,-88.4,45.2,-79.7Z" transform="translate(100 100)" />
</svg>
