<svg id="Capa_1" enable-background="new 0 0 511.056 511.056" height="512" viewBox="0 0 511.056 511.056" width="512" xmlns="http://www.w3.org/2000/svg"><g><path d="m225.723 413.123h-13.061-64.405-16.604c-4.142 0-7.5 3.357-7.5 7.5s3.358 7.5 7.5 7.5h9.104v75.047c0 2.505 1.25 4.844 3.333 6.235s4.722 1.652 7.036.694l29.334-12.141 29.334 12.141c.923.382 1.897.57 2.868.57 1.463 0 2.917-.428 4.168-1.265 2.083-1.392 3.333-3.73 3.333-6.235v-75.047h5.561c4.142 0 7.5-3.357 7.5-7.5s-3.359-7.499-7.501-7.499zm-20.56 78.826-21.834-9.037c-.918-.38-1.893-.57-2.868-.57s-1.95.19-2.868.57l-21.834 9.037v-63.826h49.405v63.826z"/><path d="m161.234 292.575c-4.142 0-7.5 3.357-7.5 7.5s3.358 7.5 7.5 7.5h106.591c4.143 0 7.5-3.357 7.5-7.5s-3.357-7.5-7.5-7.5z"/><path d="m293.658 344.31c2.081 1.392 4.72 1.652 7.036.694l29.334-12.141 29.334 12.141c.923.382 1.897.57 2.867.57 1.463 0 2.917-.428 4.169-1.265 2.082-1.392 3.332-3.73 3.332-6.235v-75.047h9.104c4.143 0 7.5-3.357 7.5-7.5s-3.357-7.5-7.5-7.5h-16.604-64.404-13.061c-4.143 0-7.5 3.357-7.5 7.5s3.357 7.5 7.5 7.5h5.561v75.047c0 2.506 1.25 4.845 3.332 6.236zm61.072-81.282v63.826l-21.834-9.037c-.918-.38-1.894-.57-2.868-.57s-1.95.19-2.868.57l-21.834 9.037v-63.826z"/><path d="m496.114 53.386c8.239 0 14.942-6.703 14.942-14.942v-23.116c0-8.238-6.703-14.941-14.942-14.941h-405.31c-49.652 0-90.047 40.395-90.047 90.047 0 31.292 16.048 58.903 40.342 75.047h-25.969c-8.239 0-14.942 6.703-14.942 14.942v23.116c0 8.238 6.703 14.941 14.942 14.941h14.578v74.095h-14.578c-8.239 0-14.942 6.703-14.942 14.942v23.115c0 8.239 6.703 14.942 14.942 14.942h25.212c-24.294 16.145-40.342 43.756-40.342 75.049 0 49.652 40.395 90.047 90.047 90.047h28.21c4.142 0 7.5-3.357 7.5-7.5s-3.358-7.5-7.5-7.5h-28.21c-41.381 0-75.047-33.666-75.047-75.047 0-41.382 33.666-75.048 75.047-75.048h159.495 18.283c4.143 0 7.5-3.357 7.5-7.5s-3.357-7.5-7.5-7.5l-18.201.004c-.028 0-.054-.004-.082-.004h-159.495c-.879 0-1.754.016-2.627.041l-72.233.017-.058-23.058h114.142c4.142 0 7.5-3.357 7.5-7.5s-3.358-7.5-7.5-7.5h-84.563v-74.095h374.942c10.133 0 20.051 4.177 27.21 11.459 7.018 7.139 10.79 16.456 10.622 26.234-.344 20.072-16.961 36.401-37.041 36.401h-28.211c-4.143 0-7.5 3.357-7.5 7.5s3.357 7.5 7.5 7.5h28.211c28.211 0 51.556-22.943 52.039-51.145.236-13.833-5.063-26.976-14.924-37.006-9.96-10.133-23.776-15.944-37.906-15.944l-381.566.055c-.288-.033-.579-.055-.875-.055-.297 0-.589.022-.877.056l-21.143.003-.059-23.058h75.673 2.009 26.202c4.142 0 7.5-3.357 7.5-7.5s-3.358-7.5-7.5-7.5h-26.201-2.009c-41.381 0-75.047-33.666-75.047-75.047s33.666-75.047 75.047-75.047l405.252-.059.058 23.059h-56.343c-4.143 0-7.5 3.357-7.5 7.5s3.357 7.5 7.5 7.5h27.935v74.094h-224.287c-4.142 0-7.5 3.357-7.5 7.5s3.358 7.5 7.5 7.5l230.928-.053c.282.032.568.053.858.053.292 0 .578-.021.861-.053l19.99-.005.058 23.058h-75.673-139.159-37.863c-4.142 0-7.5 3.357-7.5 7.5s3.358 7.5 7.5 7.5h37.863 139.159c41.381 0 75.047 33.666 75.047 75.048 0 41.381-33.666 75.047-75.047 75.047h-7.473-20.738c-4.143 0-7.5 3.357-7.5 7.5s3.357 7.5 7.5 7.5h28.211c.146 0 .29-.005.436-.006l74.424-.052.058 23.058h-404.521c-14.13 0-27.946 5.812-37.907 15.944-9.86 10.031-15.16 23.174-14.923 37.007.483 28.2 23.828 51.144 52.04 51.144h28.21c4.142 0 7.5-3.357 7.5-7.5s-3.358-7.5-7.5-7.5h-28.21c-20.081 0-36.698-16.329-37.042-36.401-.168-9.778 3.604-19.095 10.622-26.233 7.159-7.283 17.077-11.46 27.21-11.46h374.942v74.095h-223.117c-4.142 0-7.5 3.357-7.5 7.5s3.358 7.5 7.5 7.5l252.638-.058.058 23.058h-252.696c-4.142 0-7.5 3.357-7.5 7.5s3.358 7.5 7.5 7.5h252.695c8.239 0 14.942-6.703 14.942-14.942v-23.115c0-8.239-6.703-14.942-14.942-14.942h-14.578v-74.095h14.578c8.239 0 14.942-6.703 14.942-14.942v-23.115c0-8.239-6.703-14.942-14.942-14.942h-25.212c24.294-16.144 40.342-43.754 40.342-75.047s-16.048-58.904-40.342-75.048h25.968c8.239 0 14.942-6.703 14.942-14.942v-23.115c0-8.239-6.703-14.942-14.942-14.942h-13.408v-74.098z"/><path d="m415.309 45.886c0-4.143-3.357-7.5-7.5-7.5h-316.215c-14.13 0-27.947 5.812-37.907 15.944-9.86 10.03-15.16 23.173-14.923 37.007.483 28.2 23.828 51.143 52.04 51.143h28.21c4.142 0 7.5-3.357 7.5-7.5s-3.358-7.5-7.5-7.5h-28.21c-20.081 0-36.698-16.329-37.042-36.4-.168-9.778 3.604-19.095 10.622-26.233 7.159-7.283 17.077-11.46 27.21-11.46h316.215c4.143-.001 7.5-3.358 7.5-7.501z"/><path d="m144.847 179.216c2.083 1.393 4.722 1.652 7.036.694l29.334-12.141 29.334 12.141c.923.382 1.897.57 2.868.57 1.463 0 2.917-.428 4.168-1.265 2.083-1.392 3.333-3.73 3.333-6.235v-75.047h5.561c4.142 0 7.5-3.357 7.5-7.5s-3.358-7.5-7.5-7.5h-13.061-64.405-16.605c-4.142 0-7.5 3.357-7.5 7.5s3.358 7.5 7.5 7.5h9.104v75.047c0 2.505 1.25 4.844 3.333 6.236zm61.072-81.283v63.826l-21.834-9.037c-.918-.38-1.893-.57-2.868-.57s-1.95.19-2.868.57l-21.834 9.037v-63.826z"/></g></svg>