<svg xmlns="http://www.w3.org/2000/svg" xmlns:xlink="http://www.w3.org/1999/xlink" viewBox="0 0 379.61 480.1"><defs><style>.cls-1{fill:url(#Degradado_sin_nombre_11);}.cls-2{fill:url(#Degradado_sin_nombre_11-2);}.cls-3{fill:url(#Degradado_sin_nombre_11-3);}.cls-4{fill:url(#Degradado_sin_nombre_11-4);}.cls-5{fill:url(#Degradado_sin_nombre_11-5);}.cls-6{fill:url(#Degradado_sin_nombre_11-6);}.cls-7{fill:url(#Degradado_sin_nombre_11-7);}.cls-8{fill:url(#Degradado_sin_nombre_11-8);}.cls-9{fill:url(#Degradado_sin_nombre_11-9);}.cls-10{fill:url(#Degradado_sin_nombre_11-10);}.cls-11{fill:url(#Degradado_sin_nombre_11-11);}.cls-12{fill:url(#Degradado_sin_nombre_11-12);}.cls-13{fill:url(#Degradado_sin_nombre_11-13);}</style><linearGradient id="Degradado_sin_nombre_11" x1="205.54" y1="108.87" x2="265.36" y2="108.87" gradientUnits="userSpaceOnUse"><stop offset="0.01" stop-color="#f8b383"/><stop offset="0.08" stop-color="#f7a382"/><stop offset="0.3" stop-color="#f3737f"/><stop offset="0.51" stop-color="#f14e7c"/><stop offset="0.7" stop-color="#ef347a"/><stop offset="0.87" stop-color="#ed2479"/><stop offset="1" stop-color="#ed1e79"/></linearGradient><linearGradient id="Degradado_sin_nombre_11-2" x1="283.25" y1="108.87" x2="337.24" y2="108.87" xlink:href="#Degradado_sin_nombre_11"/><linearGradient id="Degradado_sin_nombre_11-3" x1="196.1" y1="235.77" x2="342.11" y2="235.77" xlink:href="#Degradado_sin_nombre_11"/><linearGradient id="Degradado_sin_nombre_11-4" x1="196.1" y1="278.92" x2="276.14" y2="278.92" xlink:href="#Degradado_sin_nombre_11"/><linearGradient id="Degradado_sin_nombre_11-5" x1="196.1" y1="322.07" x2="342.11" y2="322.07" xlink:href="#Degradado_sin_nombre_11"/><linearGradient id="Degradado_sin_nombre_11-6" x1="196.1" y1="365.23" x2="342.11" y2="365.23" xlink:href="#Degradado_sin_nombre_11"/><linearGradient id="Degradado_sin_nombre_11-7" x1="196.1" y1="409.53" x2="276.14" y2="409.53" xlink:href="#Degradado_sin_nombre_11"/><linearGradient id="Degradado_sin_nombre_11-8" x1="196.1" y1="192.62" x2="342.11" y2="192.62" xlink:href="#Degradado_sin_nombre_11"/><linearGradient id="Degradado_sin_nombre_11-9" x1="0" y1="240.05" x2="379.61" y2="240.05" xlink:href="#Degradado_sin_nombre_11"/><linearGradient id="Degradado_sin_nombre_11-10" x1="31.01" y1="108.87" x2="142.56" y2="108.87" xlink:href="#Degradado_sin_nombre_11"/><linearGradient id="Degradado_sin_nombre_11-11" x1="30.83" y1="242.21" x2="142.74" y2="242.21" xlink:href="#Degradado_sin_nombre_11"/><linearGradient id="Degradado_sin_nombre_11-12" x1="30.83" y1="316.76" x2="142.74" y2="316.76" xlink:href="#Degradado_sin_nombre_11"/><linearGradient id="Degradado_sin_nombre_11-13" x1="30.83" y1="391.32" x2="142.74" y2="391.32" xlink:href="#Degradado_sin_nombre_11"/></defs><g id="Capa_2" data-name="Capa 2"><g id="Capa_1-2" data-name="Capa 1"><path class="cls-1" d="M240.64,87.83a20.89,20.89,0,0,1,11.76,3.59,7,7,0,0,0,7.88-11.66A35.11,35.11,0,1,0,240.64,144a29.66,29.66,0,0,0,20.09-7.35,29,29,0,0,0,3-3.08,7,7,0,1,0-10.78-9,16,16,0,0,1-1.57,1.61,15.56,15.56,0,0,1-10.73,3.79,21,21,0,0,1,0-42.07Z"/><path class="cls-2" d="M310.68,144h.05a8.31,8.31,0,0,0,7.82-5.67l18.33-55.18a7,7,0,1,0-13.35-4.44l-13,39.06L296.93,78.49a7,7,0,1,0-13.29,4.61l19.21,55.35a8.32,8.32,0,0,0,7.83,5.52Z"/><path class="cls-3" d="M335.07,228.74H203.13a7,7,0,0,0,0,14.06H335.07a7,7,0,1,0,0-14.06Z"/><path class="cls-4" d="M203.13,286h66a7,7,0,1,0,0-14.07h-66a7,7,0,0,0,0,14.07Z"/><path class="cls-5" d="M335.07,315H203.13a7,7,0,0,0,0,14.07H335.07a7,7,0,1,0,0-14.07Z"/><path class="cls-6" d="M342.11,365.23a7,7,0,0,0-7-7H203.13a7,7,0,0,0,0,14.07H335.07A7,7,0,0,0,342.11,365.23Z"/><path class="cls-7" d="M203.13,402.5a7,7,0,0,0,0,14.06h66a7,7,0,1,0,0-14.06Z"/><path class="cls-8" d="M335.07,185.58H203.13a7,7,0,0,0,0,14.07H335.07a7,7,0,1,0,0-14.07Z"/><path class="cls-9" d="M372.58,98.71a7,7,0,0,0,7-7V26.92A27,27,0,0,0,352.69,0H26.92A27,27,0,0,0,0,26.92V453.17A27,27,0,0,0,26.92,480.1H352.69a27,27,0,0,0,26.92-26.93V124.57a7,7,0,1,0-14.07,0v328.6A12.87,12.87,0,0,1,352.69,466H173.39v-452h179.3a12.86,12.86,0,0,1,12.85,12.85V91.68A7,7,0,0,0,372.58,98.71ZM159.32,466H26.92a12.87,12.87,0,0,1-12.85-12.86V26.92A12.87,12.87,0,0,1,26.92,14.07h132.4Z"/><path class="cls-10" d="M86.79,164.65A55.78,55.78,0,1,0,31,108.87,55.87,55.87,0,0,0,86.79,164.65Zm0-14.07a41.46,41.46,0,0,1-24.42-7.93,27.53,27.53,0,0,1,14.12-13.21,24.29,24.29,0,0,0,20.59,0,27.53,27.53,0,0,1,14.12,13.21A41.46,41.46,0,0,1,86.79,150.58ZM76.57,107.45a10.22,10.22,0,1,1,10.22,10.21A10.22,10.22,0,0,1,76.57,107.45ZM86.79,67.16a41.69,41.69,0,0,1,34.61,65A41,41,0,0,0,108,119.2a24.29,24.29,0,1,0-42.49,0,41,41,0,0,0-13.37,12.91,41.69,41.69,0,0,1,34.62-65Z"/><path class="cls-11" d="M46,267.45h81.53a15.21,15.21,0,0,0,15.19-15.19v-20.1A15.22,15.22,0,0,0,127.55,217H46a15.22,15.22,0,0,0-15.19,15.2v20.1A15.21,15.21,0,0,0,46,267.45ZM44.9,232.16A1.13,1.13,0,0,1,46,231h81.53a1.13,1.13,0,0,1,1.12,1.13v20.1a1.12,1.12,0,0,1-1.12,1.12H46a1.12,1.12,0,0,1-1.12-1.12Z"/><path class="cls-12" d="M46,342h7.1a7,7,0,1,0,0-14.07H46a1.13,1.13,0,0,1-1.12-1.13v-20.1A1.12,1.12,0,0,1,46,305.59h81.53a1.12,1.12,0,0,1,1.12,1.12v20.1a1.13,1.13,0,0,1-1.12,1.13H86A7,7,0,1,0,86,342h41.54a15.22,15.22,0,0,0,15.19-15.2v-20.1a15.21,15.21,0,0,0-15.19-15.19H46a15.21,15.21,0,0,0-15.19,15.19v20.1A15.22,15.22,0,0,0,46,342Z"/><path class="cls-13" d="M46,416.57h81.53a15.22,15.22,0,0,0,15.19-15.2v-20.1a15.21,15.21,0,0,0-15.19-15.19H46a15.21,15.21,0,0,0-15.19,15.19v20.1A15.22,15.22,0,0,0,46,416.57Zm-1.12-35.3A1.12,1.12,0,0,1,46,380.15h81.53a1.12,1.12,0,0,1,1.12,1.12v20.1a1.13,1.13,0,0,1-1.12,1.13H46a1.13,1.13,0,0,1-1.12-1.13Z"/></g></g></svg>