<svg xmlns="http://www.w3.org/2000/svg" xmlns:xlink="http://www.w3.org/1999/xlink" viewBox="0 0 1544 1442.1"><defs><style>.cls-1{fill:url(#Degradado_sin_nombre_41);}.cls-2{fill:url(#Degradado_sin_nombre_41-2);}.cls-3{fill:url(#Degradado_sin_nombre_41-3);}.cls-4{fill:url(#Degradado_sin_nombre_41-4);}.cls-5{fill:url(#Degradado_sin_nombre_41-5);}</style><linearGradient id="Degradado_sin_nombre_41" x1="468.91" y1="440.63" x2="667.41" y2="423.26" gradientUnits="userSpaceOnUse"><stop offset="0" stop-color="#f8b383"/><stop offset="0.15" stop-color="#f8ae83"/><stop offset="0.31" stop-color="#f7a182"/><stop offset="0.49" stop-color="#f58a80"/><stop offset="0.67" stop-color="#f36a7e"/><stop offset="0.86" stop-color="#f0427b"/><stop offset="1" stop-color="#ed1e79"/></linearGradient><linearGradient id="Degradado_sin_nombre_41-2" x1="748.11" y1="446.19" x2="1076.41" y2="417.47" xlink:href="#Degradado_sin_nombre_41"/><linearGradient id="Degradado_sin_nombre_41-3" x1="-49.61" y1="823.85" x2="1555.01" y2="683.46" xlink:href="#Degradado_sin_nombre_41"/><linearGradient id="Degradado_sin_nombre_41-4" x1="938.21" y1="594.76" x2="1077.14" y2="582.61" xlink:href="#Degradado_sin_nombre_41"/><linearGradient id="Degradado_sin_nombre_41-5" x1="469.67" y1="605.68" x2="858.09" y2="571.7" xlink:href="#Degradado_sin_nombre_41"/></defs><g id="Capa_2" data-name="Capa 2"><g id="Capa_1-2" data-name="Capa 1"><path class="cls-1" d="M507.5,471.07H629.16a36.91,36.91,0,0,0,7.49-.7,39.24,39.24,0,0,0-8.16-77.71H508.73c-21.17,0-39.45,16.27-40.39,37.42A39.21,39.21,0,0,0,507.5,471.07Z"/><path class="cls-2" d="M778.35,470.37a36.91,36.91,0,0,0,7.49.7h251.24c21.18,0,39.46-16.26,40.4-37.42a39.21,39.21,0,0,0-39.17-41H786.51a39.26,39.26,0,0,0-8.16,77.71Z"/><path class="cls-3" d="M1543.33,909.32v-.4a38.8,38.8,0,0,0-34-38.25,15.55,15.55,0,0,0-2.73-.08c-.69,0-1.4.06-2.11.06s-1.37,0-2,0a18.2,18.2,0,0,0-3.38.17,38.79,38.79,0,0,0-33,33.24,17.23,17.23,0,0,0-.13,2.28v7l.51,370.08a18.56,18.56,0,0,1-29.93,14.69L1008.24,965.78a18.55,18.55,0,0,1,.78-29.89L1436.5,638.7a18.55,18.55,0,0,1,29.14,15.21l.14,100.8a38.69,38.69,0,0,0,34.84,38.49,22.21,22.21,0,0,0,2.58,0c.43,0,.87,0,1.3,0l1.3,0a18.64,18.64,0,0,0,2.48,0,38.68,38.68,0,0,0,34.84-38.2v-.65L1542.83,545a22.9,22.9,0,0,0-1.42-7.84,39.4,39.4,0,0,0-15.48-21.95l-212.22-148a18.54,18.54,0,0,1-7.94-15.22V215.55a58.11,58.11,0,0,0-58.1-58.11H1012.85a18.49,18.49,0,0,1-10.61-3.34L791.52,7.08A39.24,39.24,0,0,0,746.66,7L534.55,154.13A18.53,18.53,0,0,1,524,157.44H296.33a58.11,58.11,0,0,0-58.1,58.11V350a18.57,18.57,0,0,1-8,15.25L17,513.13a39.48,39.48,0,0,0-17,32c0,.23-.06.45-.06.69l1.17,856.86a39.71,39.71,0,0,0,27.36,37.66,37.68,37.68,0,0,0,12.07,1.81h6l1458-2a39.46,39.46,0,0,0,39.33-39.58ZM1305.77,492.54a18.55,18.55,0,0,1,29.14-15.23l75.28,52.32a18.56,18.56,0,0,1,0,30.47l-75.29,52.34a18.55,18.55,0,0,1-29.14-15.23ZM720.84,123.63l41.53-28.71a18.58,18.58,0,0,1,21.14,0l41.29,28.71c14.92,10.37,7.58,33.78-10.59,33.78H731.39C713.2,157.44,705.88,134,720.84,123.63ZM319.66,254.41a18.56,18.56,0,0,1,18.55-18.56h870.6a18.56,18.56,0,0,1,18.55,18.56V678.26a18.58,18.58,0,0,1-8,15.24L933.79,892a18.57,18.57,0,0,1-22-.58l-113.49-88c-.19-.15-.35-.25-.54-.38a39.52,39.52,0,0,0-47.94.38L635.44,892.16a18.57,18.57,0,0,1-21.92.6L327.67,695.24a18.53,18.53,0,0,1-8-15.26ZM133.22,529.6l78.93-54.55a18.55,18.55,0,0,1,29.1,15.26v109.1a18.55,18.55,0,0,1-29.1,15.26l-78.93-54.55A18.55,18.55,0,0,1,133.22,529.6Zm-51.85,754-.86-627.82a18.55,18.55,0,0,1,29.1-15.29L538.1,936.65a18.56,18.56,0,0,1,.83,29.93L111.29,1298.27A18.55,18.55,0,0,1,81.37,1283.64Zm1252,77.12L211.65,1362.3c-17.69,0-25.37-22.37-11.39-33.22L762.13,893.26a18.55,18.55,0,0,1,22.74,0l559.87,434.28C1358.7,1338.37,1351.06,1360.73,1333.39,1360.76Z"/><path class="cls-4" d="M1038.31,549.48H977a39.21,39.21,0,0,0,0,78.41h61.28a39.2,39.2,0,0,0,39.21-39.2h0A39.2,39.2,0,0,0,1038.31,549.48Z"/><path class="cls-5" d="M820.21,549.48H507.55a39.2,39.2,0,0,0-39.21,39.2h0a39.2,39.2,0,0,0,39.21,39.2H820.21a39.21,39.21,0,1,0,0-78.41Z"/></g></g></svg>