<svg xmlns="http://www.w3.org/2000/svg" viewBox="0 0 1319.22 704.29"><defs><style>.cls-1{fill:#fff;}</style></defs><g id="Capa_2" data-name="Capa 2"><g id="Capa_1-2" data-name="Capa 1"><polygon class="cls-1" points="718.39 347.81 831.93 347.81 813.82 316.43 721.52 316.43 718.39 347.81"/><polygon class="cls-1" points="838.29 358.8 717.31 358.8 714.47 387.26 854.72 387.26 838.29 358.8"/><polyline class="cls-1" points="597.72 316.43 598 319.27 597.72 316.43 505.4 316.43 487.29 347.81 600.83 347.81"/><polyline class="cls-1" points="601.92 358.8 480.93 358.8 464.5 387.26 604.75 387.26 604.7 386.71 604.75 387.26 601.93 358.8"/><path class="cls-1" d="M722.62,305.44h84.86L772.6,245A189.72,189.72,0,0,0,830.41,0a187,187,0,0,1-75.52,214.36l-19.82-34.31L665.32,59.22v99.71a26.57,26.57,0,1,1-11.41,0V59.2L584.15,180l-23.3,40.35a186.6,186.6,0,0,1-84.7-102.09A189,189,0,0,0,549,241l-37.22,64.47h84.88l-3.94-39.6,3.94,39.6-3.94-39.6a190.17,190.17,0,0,0,133.56,3.06Z"/><path class="cls-1" d="M874.11,512.23H780v39.39h20.49v17.12H762.86V454.84H780V495.1h94.13V448.22c0-28.37-15-43.37-43.36-43.37H712.08c-28.37,0-43.36,15-43.36,43.37V575.37c0,28.36,15,43.35,43.36,43.35H830.75c28.37,0,43.36-15,43.36-43.35Z"/><polygon class="cls-1" points="334.17 618.72 428.3 618.72 428.3 404.85 334.17 404.85 334.17 482.48 334.17 488.56 328.08 488.56 323.13 488.56 317.04 488.56 317.04 482.48 317.04 404.85 222.91 404.85 222.91 618.72 317.04 618.72 317.04 544.64 317.04 538.55 323.13 538.55 328.08 538.55 334.17 538.55 334.17 544.64 334.17 618.72"/><polygon class="cls-1" points="1194.34 540.69 1236.33 618.72 1319.22 618.72 1319.22 404.85 1232.15 404.85 1232.15 432.67 1253.07 475.19 1257.39 483.97 1247.6 483.97 1243.37 483.97 1239.73 483.97 1238.01 480.77 1197.07 404.85 1114.53 404.85 1114.53 618.72 1201.25 618.72 1201.25 590.89 1179.61 546.23 1175.37 537.49 1185.09 537.49 1188.97 537.49 1192.61 537.49 1194.34 540.69"/><path class="cls-1" d="M651.21,448.21c0-28.36-15-43.36-43.36-43.36H489.17c-28.36,0-43.35,15-43.35,43.36V575.37c0,28.36,15,43.35,43.35,43.35H607.85c28.36,0,43.36-15,43.36-43.35Zm-94.14,12.72V568.74H540V454.84h17.12Z"/><path class="cls-1" d="M205.39,537.57c0-28.77-14.58-43.36-43.36-43.36H94.13V454.84h17.13v21.9h94.13V448.21c0-28.36-15-43.36-43.36-43.36H43.36C15,404.85,0,419.85,0,448.21v38.86c0,28.77,14.59,43.35,43.36,43.35h67.9v38.32H94.13V547.9H0v27.47c0,28.36,15,43.35,43.36,43.35h118c25.53,0,44.06-18.53,44.06-44.06Z"/><path class="cls-1" d="M1097,404.85h-94.13V568.74H985.76V404.85H891.63V575.37c0,28.36,15,43.35,43.36,43.35h118.67c28.37,0,43.36-15,43.36-43.35Z"/><path class="cls-1" d="M327.21,637.17V701.1H313.78V637.17ZM322.1,701.1v-12h13A26.71,26.71,0,0,0,343,688a18.72,18.72,0,0,0,6.57-3.56,15.73,15.73,0,0,0,4.43-6.21,23.87,23.87,0,0,0,1.55-9.09A24.2,24.2,0,0,0,354,660a15.32,15.32,0,0,0-4.43-6.21,19,19,0,0,0-6.57-3.52,26.71,26.71,0,0,0-7.9-1.14h-13v-12h13.33a40.5,40.5,0,0,1,13.79,2.23,30.14,30.14,0,0,1,10.64,6.44,28.49,28.49,0,0,1,6.81,10.09,37.94,37.94,0,0,1,0,26.4,28.4,28.4,0,0,1-6.81,10.09,30,30,0,0,1-10.64,6.44,40.5,40.5,0,0,1-13.79,2.24Z"/><path class="cls-1" d="M392,637.17V701.1H379.27V637.17Zm-4.38,0h32.33v11.14H387.58Zm0,24.56h30.51V672.6H387.58Zm0,28.22h32.33V701.1H387.58Z"/><path class="cls-1" d="M442.88,685.75a19,19,0,0,0,5.34,4.16,13.63,13.63,0,0,0,6.31,1.51,10.83,10.83,0,0,0,4.61-.92,7,7,0,0,0,3.06-2.6,7.14,7.14,0,0,0,1.09-4,7.44,7.44,0,0,0-1.5-4.8,12.87,12.87,0,0,0-4.43-3.29q-2.92-1.41-7.22-3.06-2.37-.9-5.3-2.28a25.27,25.27,0,0,1-5.61-3.65,18.78,18.78,0,0,1-4.43-5.48,16,16,0,0,1-1.74-7.77,15.88,15.88,0,0,1,2.79-9.36,18.24,18.24,0,0,1,7.58-6.16,25.76,25.76,0,0,1,10.82-2.19,24.93,24.93,0,0,1,10.5,2.05,23.6,23.6,0,0,1,7.45,5.21,27.12,27.12,0,0,1,4.61,6.44l-10.23,5.84a25,25,0,0,0-3.15-4.2,13.46,13.46,0,0,0-4.06-3,11.72,11.72,0,0,0-5.12-1.1,9.62,9.62,0,0,0-4.24.82,6.24,6.24,0,0,0-2.56,2.15,5.28,5.28,0,0,0-.87,3,5.89,5.89,0,0,0,.91,3.19,9.36,9.36,0,0,0,2.7,2.7,25.46,25.46,0,0,0,4.47,2.37c1.8.76,3.88,1.57,6.26,2.42a38.82,38.82,0,0,1,6,2.74,22.52,22.52,0,0,1,5.2,4,18.89,18.89,0,0,1,3.66,5.53,17.87,17.87,0,0,1,1.37,7.17,17.64,17.64,0,0,1-1.88,8.26,18.29,18.29,0,0,1-5.07,6.12,23.24,23.24,0,0,1-7.21,3.84,26.47,26.47,0,0,1-8.31,1.32,27.47,27.47,0,0,1-11-2.19A28.41,28.41,0,0,1,429,686.21l9.41-6.67A33.52,33.52,0,0,0,442.88,685.75Z"/><path class="cls-1" d="M501,637.17V701.1H487.77V637.17Z"/><path class="cls-1" d="M545.86,666.94h31.6a41.12,41.12,0,0,1-1.74,13.79,32.84,32.84,0,0,1-6.12,11.42,29,29,0,0,1-10.23,7.76,33.08,33.08,0,0,1-14.06,2.83,37.9,37.9,0,0,1-13.75-2.42,31.54,31.54,0,0,1-10.82-6.89,30.62,30.62,0,0,1-7-10.69,36.45,36.45,0,0,1-2.47-13.61,35.63,35.63,0,0,1,2.51-13.61,29.84,29.84,0,0,1,7.17-10.5,32.75,32.75,0,0,1,11-6.76,38.92,38.92,0,0,1,13.79-2.37,36.19,36.19,0,0,1,11.79,1.82,31.84,31.84,0,0,1,9.4,5.07,32.24,32.24,0,0,1,7,7.72l-11.24,6.58a20.79,20.79,0,0,0-6.62-6.81,18.72,18.72,0,0,0-10.37-2.69,22.37,22.37,0,0,0-8.08,1.46,19.07,19.07,0,0,0-6.66,4.29,19.7,19.7,0,0,0-4.48,6.81,23.78,23.78,0,0,0-1.6,9,25,25,0,0,0,1.55,9,20,20,0,0,0,4.39,6.9,19.56,19.56,0,0,0,6.62,4.43,23.23,23.23,0,0,0,15.25.5,17.16,17.16,0,0,0,5.35-2.92,16.93,16.93,0,0,0,3.79-4.39,22.27,22.27,0,0,0,2.32-5.34H545.86Z"/><path class="cls-1" d="M646.14,637.17v67.12l-45.3-42.65V701.1h-12.7V634l45.3,42.65V637.17Z"/><path class="cls-1" d="M697.42,685.75a19,19,0,0,0,5.34,4.16,13.62,13.62,0,0,0,6.3,1.51,10.85,10.85,0,0,0,4.62-.92,7,7,0,0,0,3.06-2.6,7.14,7.14,0,0,0,1.09-4,7.44,7.44,0,0,0-1.5-4.8,13,13,0,0,0-4.43-3.29q-2.92-1.41-7.22-3.06-2.37-.9-5.3-2.28a25,25,0,0,1-5.61-3.65,18.78,18.78,0,0,1-4.43-5.48,16,16,0,0,1-1.74-7.77,15.88,15.88,0,0,1,2.79-9.36,18.24,18.24,0,0,1,7.58-6.16,25.73,25.73,0,0,1,10.82-2.19,24.93,24.93,0,0,1,10.5,2.05,23.6,23.6,0,0,1,7.45,5.21,27.12,27.12,0,0,1,4.61,6.44l-10.23,5.84a25,25,0,0,0-3.15-4.2,13.38,13.38,0,0,0-4.07-3,11.64,11.64,0,0,0-5.11-1.1,9.7,9.7,0,0,0-4.25.82,6.21,6.21,0,0,0-2.55,2.15,5.28,5.28,0,0,0-.87,3,5.89,5.89,0,0,0,.91,3.19,9.36,9.36,0,0,0,2.7,2.7,25.11,25.11,0,0,0,4.47,2.37c1.8.76,3.88,1.57,6.26,2.42a38.82,38.82,0,0,1,6,2.74,22.74,22.74,0,0,1,5.2,4,18.67,18.67,0,0,1,3.65,5.53,19.19,19.19,0,0,1-.5,15.43,18.53,18.53,0,0,1-5.07,6.12,23.24,23.24,0,0,1-7.21,3.84,26.47,26.47,0,0,1-8.31,1.32,27.47,27.47,0,0,1-11-2.19,28.41,28.41,0,0,1-14.66-14.34l9.41-6.67A33.52,33.52,0,0,0,697.42,685.75Z"/><path class="cls-1" d="M735.92,637.17h47.49V649H766.15V701.1H753V649H735.92Z"/><path class="cls-1" d="M803.41,637.17v42.19a14.36,14.36,0,0,0,1.28,6.3,9.56,9.56,0,0,0,3.83,4.16,13.92,13.92,0,0,0,12.61,0,9.56,9.56,0,0,0,3.83-4.16,14.22,14.22,0,0,0,1.28-6.3V637.17h13.15v42.92a25.22,25.22,0,0,1-1.82,10,19.76,19.76,0,0,1-5.16,7.21,23.46,23.46,0,0,1-7.81,4.48,31.6,31.6,0,0,1-19.55,0,22.83,22.83,0,0,1-7.76-4.48,19.55,19.55,0,0,1-5.07-7.21,25.78,25.78,0,0,1-1.78-10V637.17Z"/><path class="cls-1" d="M866.25,637.17V701.1H852.82V637.17Zm-5.12,63.93v-12h13A26.71,26.71,0,0,0,882,688a18.67,18.67,0,0,0,6.58-3.56,15.83,15.83,0,0,0,4.43-6.21,24.07,24.07,0,0,0,1.55-9.09A24.4,24.4,0,0,0,893,660a15.41,15.41,0,0,0-4.43-6.21,18.91,18.91,0,0,0-6.58-3.52,26.71,26.71,0,0,0-7.9-1.14h-13v-12h13.34a40.5,40.5,0,0,1,13.79,2.23,30.23,30.23,0,0,1,10.64,6.44,28.33,28.33,0,0,1,6.8,10.09,37.8,37.8,0,0,1,0,26.4,28.25,28.25,0,0,1-6.8,10.09,30.09,30.09,0,0,1-10.64,6.44,40.5,40.5,0,0,1-13.79,2.24Z"/><path class="cls-1" d="M931.55,637.17V701.1H918.3V637.17Z"/><path class="cls-1" d="M944.29,655.75a30.72,30.72,0,0,1,7.08-10.5,32.75,32.75,0,0,1,10.73-6.9,37.73,37.73,0,0,1,26.8,0,33.54,33.54,0,0,1,10.74,6.9,30.68,30.68,0,0,1,7.12,10.5,34.77,34.77,0,0,1,2.51,13.38,35.34,35.34,0,0,1-2.51,13.34A31.54,31.54,0,0,1,989,700.23a37.91,37.91,0,0,1-27.13,0,32,32,0,0,1-10.68-7,31.67,31.67,0,0,1-7-10.69,35.77,35.77,0,0,1-2.46-13.38A34.59,34.59,0,0,1,944.29,655.75ZM957,677.49a19.89,19.89,0,0,0,4.11,6.71,18.3,18.3,0,0,0,6.3,4.39,21.63,21.63,0,0,0,16.08,0,18.49,18.49,0,0,0,6.3-4.39,20.33,20.33,0,0,0,4.11-6.67,23.45,23.45,0,0,0,1.46-8.4,25.06,25.06,0,0,0-1.37-8.36,19,19,0,0,0-4-6.71,18.46,18.46,0,0,0-6.3-4.38,22,22,0,0,0-16.26,0,18.27,18.27,0,0,0-6.3,4.38,20,20,0,0,0-4.11,6.67,24.78,24.78,0,0,0,0,16.76Z"/></g></g></svg>