<svg id="Shogun_Red" data-name="Shogun Red" xmlns="http://www.w3.org/2000/svg" viewBox="0 0 884 877.32"><defs><style>.cls-1{fill:#fff;}</style></defs><polygon class="cls-1" points="575.16 787.94 832.38 787.94 791.34 716.86 582.25 716.86 575.16 787.94"/><polygon class="cls-1" points="846.78 812.84 572.71 812.84 566.28 877.32 884 877.32 846.78 812.84"/><polyline class="cls-1" points="301.79 716.86 302.43 723.28 301.79 716.86 92.66 716.86 51.62 787.94 308.84 787.94"/><polyline class="cls-1" points="311.32 812.84 37.22 812.84 0 877.32 317.72 877.32 317.6 876.06 317.72 877.32 311.33 812.84"/><path class="cls-1" d="M-628.26-740.7H-436l-79-136.85c125.81-88.59,199.67-242.12,178.88-405.44a428.58,428.58,0,0,0-47.92-149.67,423,423,0,0,1,17.42,77.8c21.17,166.15-57.09,322-188.51,407.81L-600-1024.77l-158-273.74v225.9a60.13,60.13,0,0,1,47.18,60.75c-1,30.9-26.23,56.59-57.12,58.1a60.19,60.19,0,0,1-63.18-60.1,60.17,60.17,0,0,1,47.27-58.75v-225.94L-942-1024.81l-52.78,91.41a422.69,422.69,0,0,1-191.87-231.29,428,428,0,0,0,164.94,277.93L-1106-740.7H-913.7l-8.92-89.71,8.92,89.71-8.92-89.71a427.49,427.49,0,0,0,214.77,27.6A430.21,430.21,0,0,0-620-823.48Z" transform="translate(1213 1432.66)"/></svg>